<svg width="26" height="26" fill="none" xmlns="http://www.w3.org/2000/svg"><g clip-path="url(#clip0_0_133)"><path d="M4.938 11.573a.851.851 0 01-1.218 0 .879.879 0 010-1.232l7.53-7.606C12.948 1.417 14.655.784 16.356.87c2.142.11 3.81.927 5.226 2.266 1.443 1.366 2.377 3.315 2.377 5.677 0 1.813-.527 3.408-1.64 4.824L11.705 24.573c-1.074.88-2.267 1.306-3.545 1.255-1.623-.068-2.83-.592-3.728-1.48-1.051-1.037-1.696-2.312-1.696-4.026 0-1.363.471-2.622 1.442-3.803l9.344-9.539c.749-.799 1.481-1.273 2.23-1.388a3.104 3.104 0 012.747.942c.664.703.949 1.58.85 2.577-.07.68-.348 1.307-.86 1.908l-8.59 8.799a.853.853 0 01-1.215.007.879.879 0 01-.008-1.232l8.549-8.754c.25-.293.38-.59.412-.904.05-.5-.07-.868-.381-1.196a1.395 1.395 0 00-1.249-.424c-.303.046-.728.322-1.25.879L5.45 17.69c-.67.818-.995 1.686-.995 2.633 0 1.191.43 2.044 1.176 2.78.593.586 1.398.936 2.596.986.85.033 1.636-.248 2.32-.802L21.03 12.488c.805-1.032 1.207-2.247 1.207-3.674 0-1.85-.72-3.35-1.832-4.405C19.27 3.333 17.97 2.7 16.27 2.612c-1.259-.065-2.578.424-3.892 1.43l-7.44 7.531z" fill="#fff"/></g><defs><clipPath id="clip0_0_133"><path fill="#fff" transform="translate(.863 .863)" d="M0 0h24.969v24.969H0z"/></clipPath></defs></svg>