<svg width="11" height="8" fill="none" xmlns="http://www.w3.org/2000/svg"><path d="M9.617 1H1.88a.881.881 0 00-.88.88v4.95c0 .486.396.88.88.88h7.737c.484 0 .88-.394.88-.88V1.88a.881.881 0 00-.88-.88zm-7.478.66h7.219L5.922 5.106a.247.247 0 01-.174.065.247.247 0 01-.174-.065L2.14 1.66zm1.755 2.695L1.66 6.595v-4.48l2.234 2.24zM6.39 5.572l.747-.75 2.22 2.228H2.14l2.22-2.228.748.75a.925.925 0 001.283 0zm3.447-3.458v4.482L7.603 4.355l2.234-2.24z" fill="#8EBD00"/><path d="M6.39 5.572l.747-.75 2.22 2.228H2.14l2.22-2.228.748.75a.925.925 0 001.283 0zm0 0l-.039-.039M9.617 1H1.88a.881.881 0 00-.88.88v4.95c0 .486.396.88.88.88h7.737c.484 0 .88-.394.88-.88V1.88a.881.881 0 00-.88-.88zm-7.478.66h7.219L5.922 5.106a.247.247 0 01-.174.065.247.247 0 01-.174-.065L2.14 1.66zm1.755 2.695L1.66 6.595v-4.48l2.234 2.24zm5.943-2.24v4.48l-2.234-2.24 2.234-2.24z" stroke="#8EBD00" stroke-width=".2"/></svg>